<svg width="179" height="149" viewBox="0 0 179 149" fill="none" xmlns="http://www.w3.org/2000/svg">
<path d="M1.73865 78.9204C8.31557 54.563 33.6579 50.2424 66.7353 30.7627C85.215 19.8799 102.356 0.000448649 127.047 0C181.661 -0.000992193 190.099 63.6315 165.045 100.838C141.545 135.736 95.9746 146.237 59.566 138.41C7.09277 127.129 -3.61603 98.7512 1.73865 78.9204Z" fill="#E3DDFF"/>
<path d="M66.8719 120.138L70.7736 111.465L81.0851 121.863L77.82 140.124C77.4671 141.402 72.9422 148.347 72.1496 148.569C71.3502 148.793 62.6672 146.743 57.8341 144.933C57.3166 144.739 56.2808 144.197 56.4828 143.264C56.8387 141.612 62.1394 141.268 62.9631 139.042C63.9447 136.387 64.2068 127.358 66.8716 120.141" fill="#FFF9E5"/>
<path d="M71.9447 148.749C69.8355 148.408 67.7388 147.99 65.6687 147.456C63.5704 146.917 61.5032 146.279 59.4497 145.58C58.8529 145.377 58.2534 145.169 57.6573 144.959C56.9875 144.721 56.3393 144.435 55.7586 144.017C55.1691 143.592 55.0727 142.678 55.5021 142.104C56.1037 141.301 57.0351 140.916 58.0101 140.972C58.3395 140.989 58.7037 141.226 58.9046 141.484C59.1055 141.741 59.2363 142.154 59.1797 142.491C59.1216 142.841 58.964 143.19 58.6743 143.404C58.3744 143.623 58.0555 143.706 57.6844 143.687C57.6495 143.683 57.6174 143.682 57.5817 143.684L57.9429 143.679C57.8073 143.682 57.6761 143.702 57.543 143.739L57.8766 143.641C57.7462 143.681 57.6239 143.735 57.5091 143.807C57.6065 143.746 57.707 143.686 57.8044 143.626C57.7031 143.693 57.614 143.764 57.5267 143.848L57.769 143.599C57.7212 143.649 57.6797 143.7 57.6374 143.757C57.5528 143.12 57.4686 142.48 57.3809 141.843C57.4933 141.926 57.6101 141.999 57.7272 142.069L57.4262 141.895C57.9626 142.199 58.5479 142.391 59.1257 142.593C59.7249 142.803 60.3245 143.01 60.928 143.211C62.0295 143.581 63.139 143.939 64.2554 144.265C64.868 144.444 65.4786 144.613 66.0963 144.776C65.9809 144.746 65.8654 144.716 65.7468 144.685C67.8971 145.247 70.0719 145.685 72.2664 146.04C72.6139 146.095 72.941 146.266 73.161 146.552C73.3643 146.816 73.4927 147.222 73.4361 147.559C73.3191 148.267 72.6828 148.875 71.9408 148.755L71.9447 148.749Z" fill="#AD7F42"/>
<path d="M115.904 120.09L111.821 111.501C111.821 111.501 103.653 116.733 101.731 122.113C99.2905 128.943 104.56 139.285 105.333 140.68C106.105 142.075 110.43 148.421 111.228 148.626C112.032 148.834 120.669 146.601 125.463 144.69C125.976 144.485 127.001 143.922 126.779 142.993C126.388 141.348 121.082 141.116 120.211 138.908C119.174 136.274 118.721 127.252 115.905 120.094" fill="#FFF9E5"/>
<path d="M111.436 148.802C113.537 148.417 115.625 147.954 117.683 147.378C119.769 146.794 121.823 146.113 123.861 145.371C124.453 145.155 125.048 144.935 125.64 144.713C126.304 144.46 126.946 144.161 127.518 143.731C128.099 143.293 128.176 142.378 127.734 141.813C127.116 141.023 126.177 140.657 125.203 140.733C124.874 140.757 124.515 141.003 124.319 141.264C124.124 141.525 124.002 141.941 124.066 142.277C124.131 142.626 124.296 142.971 124.59 143.179C124.895 143.392 125.215 143.468 125.586 143.441C125.621 143.436 125.653 143.435 125.688 143.437L125.327 143.439C125.463 143.439 125.594 143.456 125.728 143.49L125.393 143.4C125.524 143.437 125.647 143.488 125.764 143.557C125.665 143.499 125.563 143.441 125.465 143.383C125.567 143.447 125.658 143.517 125.747 143.599L125.499 143.355C125.548 143.404 125.591 143.454 125.634 143.51C125.705 142.872 125.776 142.23 125.85 141.591C125.74 141.676 125.625 141.752 125.509 141.824L125.806 141.644C125.276 141.96 124.695 142.164 124.122 142.378C123.527 142.601 122.932 142.82 122.333 143.034C121.24 143.427 120.138 143.808 119.029 144.157C118.42 144.349 117.813 144.531 117.199 144.707C117.314 144.675 117.428 144.642 117.546 144.608C115.409 145.216 113.243 145.7 111.057 146.1C110.711 146.163 110.387 146.341 110.173 146.631C109.976 146.899 109.856 147.308 109.92 147.644C110.051 148.349 110.7 148.943 111.44 148.808L111.436 148.802Z" fill="#AD7F42"/>
<path d="M121.765 85.5386C131.636 80.442 136.327 71.7804 137.487 70.2484C137.673 70.0045 137.984 69.6574 138.388 69.8951C138.787 70.1295 138.854 70.5566 137.913 71.7622C138.45 71.0555 138.978 70.287 139.541 70.8626C139.918 71.2459 139.311 72.0694 138.856 72.6177C139.518 71.9055 140.001 71.3925 140.472 71.8049C140.767 72.0651 140.883 72.4864 139.853 73.6063C140.341 73.2015 140.856 72.3768 141.394 72.7758C141.973 73.2065 141.286 74.1519 140.975 74.4655C141.473 73.9198 141.883 73.4621 142.29 73.7466C142.677 74.0153 142.513 74.5916 142.376 74.9245C142.035 75.7657 137.866 85.8317 123.778 93.4213C119.548 95.7007 116.335 95.5363 115.393 92.7C114.889 91.1859 115.63 89.2723 117.661 87.9102C118.707 87.2098 120.046 86.4224 121.762 85.537L121.765 85.5386Z" fill="white"/>
<path d="M64.0161 85.5386C54.1457 80.442 49.4544 71.7804 48.2946 70.2484C48.1084 70.0045 47.7973 69.6574 47.3932 69.8951C46.9947 70.1295 46.9268 70.5566 47.8684 71.7622C47.3313 71.0555 46.8035 70.287 46.2404 70.8626C45.8635 71.2459 46.4704 72.0694 46.9251 72.6177C46.2632 71.9055 45.7805 71.3925 45.3094 71.8049C45.014 72.0651 44.8985 72.4864 45.9281 73.6063C45.4404 73.2015 44.925 72.3768 44.3872 72.7758C43.8084 73.2065 44.4955 74.1519 44.8061 74.4655C44.3086 73.9198 43.8979 73.4621 43.4909 73.7466C43.1044 74.0153 43.2686 74.5916 43.4056 74.9245C43.7458 75.7657 47.9156 85.8317 62.0036 93.4213C66.2328 95.7007 69.4461 95.5363 70.3887 92.7C70.8922 91.1859 70.1509 89.2723 68.1205 87.9102C67.0742 87.2099 65.7348 86.4224 64.0189 85.537L64.0161 85.5386Z" fill="white"/>
<path d="M61.8643 98.8106C60.2261 101.722 59.4093 105.266 60.1014 109.396C61.5725 118.156 67.3112 121.91 72.6011 123.385C71.8253 130.559 75.2494 142.805 86.6283 144.376C100.57 146.299 105.765 136.982 107.289 131.749C107.743 130.186 107.911 127.639 107.525 124.782C107.892 124.761 108.231 124.734 108.542 124.712C113.692 124.363 128.176 118.948 124.396 103.525C124.215 103.023 124.03 102.539 123.841 102.07C129.271 98.8832 134.743 92.7259 132.519 83.4555C131.594 79.5936 130.061 76.7492 128.197 74.6743C129.888 71.4014 130.592 67.3323 129.264 62.5419C126.159 51.3245 116.328 48.4223 110.027 49.5183C108.411 49.7996 106.619 50.4305 104.852 51.3991C98.979 41.5713 91.7977 42.2791 87.6511 43.2154C84.5221 43.9187 80.281 46.8041 77.8047 51.5909C75.1803 50.4349 70.5551 48.8884 65.3424 50.1746C59.1949 51.6888 52.3296 58.9197 53.5282 68.3909C53.9194 71.492 55.2502 73.9603 56.1744 75.97C54.4287 78.9331 53.5738 82.561 54.4189 86.7929C55.6624 93.0101 58.5555 96.6776 61.8677 98.8169L61.8643 98.8106Z" fill="#5A1EFF"/>
<path d="M110.674 58.046C110.564 58.0087 108.072 57.1585 108.321 55.4882C108.662 53.1925 111.664 52.9006 113.536 53.3697C115.337 53.8226 116.588 55.0003 116.11 56.8606C115.632 58.7208 112.774 58.7874 110.674 58.046Z" fill="#431DCE"/>
<path d="M118.309 78.5264C118.198 78.4891 115.706 77.6389 115.956 75.9687C116.297 73.673 119.299 73.3811 121.171 73.8502C122.972 74.3031 124.223 75.4808 123.745 77.341C123.267 79.2013 120.409 79.2679 118.309 78.5264Z" fill="#431DCE"/>
<path d="M68.809 80.0567C68.6984 80.0194 66.2064 79.1692 66.4555 77.499C66.7969 75.2032 69.7987 74.9114 71.6709 75.3805C73.4721 75.8334 74.7232 77.011 74.2449 78.8713C73.7666 80.7316 70.909 80.7981 68.809 80.0567Z" fill="#431DCE"/>
<path d="M92.2631 115.594C92.1525 115.557 89.6605 114.706 89.9096 113.036C90.2511 110.74 93.2528 110.448 95.125 110.918C96.9262 111.37 98.1773 112.548 97.699 114.408C97.2207 116.269 94.3631 116.335 92.2631 115.594Z" fill="#431DCE"/>
<path d="M109.105 100.974C108.994 100.936 106.502 100.086 106.751 98.4159C107.093 96.1202 110.095 95.8284 111.967 96.2975C113.768 96.7504 115.019 97.928 114.541 99.7883C114.063 101.649 111.205 101.715 109.105 100.974Z" fill="#431DCE"/>
<path d="M76.3676 96.0704C76.257 96.0331 73.765 95.1829 74.0141 93.5126C74.3555 91.2169 77.3573 90.925 79.2295 91.3941C81.0307 91.847 82.2818 93.0247 81.8035 94.885C81.3252 96.7452 78.4676 96.8118 76.3676 96.0704Z" fill="#431DCE"/>
<path d="M63.2445 58.6661C63.1339 58.6288 60.6419 57.7786 60.8911 56.1083C61.2325 53.8126 64.2343 53.5208 66.1065 53.9898C67.9076 54.4428 69.1588 55.6204 68.6805 57.4807C68.2022 59.3409 65.3445 59.4075 63.2445 58.6661Z" fill="#431DCE"/>
<path d="M89.7644 92.7648C89.1815 92.707 75.9484 91.5886 73.6289 80.6326C70.4411 65.5707 83.6414 58.6232 93.2258 58.4044C102.441 58.1947 110.646 63.501 112.308 76.0496C113.971 88.6012 100.963 93.871 89.7614 92.7648H89.7644Z" fill="white"/>
<path d="M100.409 71.7539C99.5342 71.7539 97.9943 71.6499 96.7344 73.3214C97.6093 73.3214 99.0442 73.4254 99.8842 73.8433" stroke="#7A706C" stroke-width="1.26624" stroke-linecap="round" stroke-linejoin="round"/>
<path d="M85.1866 71.7539C86.0615 71.7539 87.6014 71.6499 88.8613 73.3214C87.9864 73.3214 86.5515 73.4254 85.7115 73.8433" stroke="#7A706C" stroke-width="1.26624" stroke-linecap="round" stroke-linejoin="round"/>
<path d="M83.8177 78.2039C85.0356 77.953 85.8235 76.7438 85.5775 75.503C85.3316 74.2622 84.1448 73.4598 82.9269 73.7107C81.709 73.9616 80.9211 75.1709 81.1671 76.4116C81.413 77.6524 82.5998 78.4549 83.8177 78.2039Z" fill="#F9AE85"/>
<path d="M97.7321 77.346C95.6953 77.7382 93.3371 77.318 91.8739 75.7137C91.4962 75.3005 91.1372 74.7722 91.187 74.1804C91.2191 73.8041 91.4326 73.4302 91.784 73.277C92.1355 73.1238 92.5299 73.1511 92.8437 73.379C93.4383 73.8195 93.5948 74.6152 93.1718 75.2415C92.824 75.7555 92.2468 76.0511 91.7024 76.3052C90.3445 76.9395 88.8694 77.261 87.3751 77.2387C87.0255 77.234 86.6984 76.8954 86.7242 76.534C86.7532 76.1585 87.0389 75.8673 87.4149 75.8723C87.6753 75.8754 87.9335 75.8691 88.1925 75.8525C88.2538 75.8475 88.315 75.8426 88.3794 75.8368C88.4112 75.8324 88.4407 75.8319 88.4725 75.8274C88.4601 75.8304 88.3701 75.8391 88.4469 75.8303C88.5804 75.811 88.7146 75.7949 88.848 75.7755C89.3703 75.691 89.8844 75.5583 90.3825 75.386C90.44 75.3652 90.5006 75.3436 90.5581 75.3228C90.5884 75.312 90.6156 75.302 90.6459 75.2912C90.6335 75.2943 90.5503 75.3314 90.6218 75.3005C90.7478 75.2495 90.8699 75.1961 90.9943 75.1388C91.2222 75.0327 91.4485 74.9203 91.6688 74.7959C91.7411 74.7547 91.8559 74.6429 91.9335 74.6238C91.9273 74.6254 91.8376 74.7043 91.8883 74.655C91.904 74.6378 91.9265 74.6222 91.9429 74.6081C91.9835 74.5714 92.0194 74.5291 92.0593 74.4892C92.1123 74.436 92.0226 74.5283 92.0241 74.5346C92.0226 74.5283 92.0578 74.4828 92.0625 74.475C92.0672 74.4671 92.0884 74.4184 92.097 74.4129C92.0846 74.416 92.0566 74.5334 92.0703 74.4664C92.0719 74.4593 92.0847 74.4025 92.0901 74.3979C92.0839 74.3994 92.0791 74.5312 92.0796 74.4641C92.0754 74.3914 92.0953 74.544 92.0922 74.5447C92.0922 74.5447 92.0734 74.4656 92.0726 74.4624C92.0828 74.4499 92.1088 74.6144 92.1 74.5361C92.0985 74.5298 92.0678 74.4837 92.0702 74.4798C92.0624 74.4884 92.1671 74.5833 92.1132 74.5362C92.1001 74.5227 92.0824 74.5036 92.0724 74.4893C91.9994 74.4033 92.1735 74.555 92.0786 74.5012C92.0786 74.5012 92.2147 74.5482 92.1489 74.5342C92.0691 74.5169 92.2922 74.5426 92.2131 74.5419C92.1411 74.5428 92.3117 74.5278 92.3024 74.5301C92.2962 74.5316 92.4501 74.4603 92.3832 74.4968C92.3225 74.5318 92.4471 74.4477 92.4448 74.4516C92.4448 74.4516 92.5208 74.3291 92.4925 74.3897C92.4587 74.4549 92.5249 74.3047 92.5233 74.3118C92.5161 74.337 92.5072 74.3961 92.5195 74.2959C92.5334 74.1887 92.5244 74.2612 92.5235 74.2849C92.5274 74.3844 92.5215 74.2352 92.5115 74.2209C92.5261 74.2407 92.5409 74.3443 92.5454 74.3633C92.5511 74.4289 92.5303 74.3 92.5157 74.2935C92.5234 74.2983 92.5378 74.3451 92.5431 74.3538C92.5622 74.3927 92.5813 74.4315 92.6036 74.4696C92.6143 74.4871 92.6258 74.5077 92.6365 74.5252C92.6817 74.6046 92.6327 74.5094 92.6042 74.4862C92.672 74.55 92.7264 74.6405 92.7895 74.7121C92.8571 74.7893 92.931 74.865 93.0049 74.9407C93.0734 75.0077 93.1474 75.0699 93.2183 75.1329C93.273 75.1832 93.1813 75.1018 93.1774 75.0994C93.196 75.1083 93.2175 75.1298 93.2337 75.1425C93.2777 75.1753 93.3224 75.2113 93.3663 75.244C93.5291 75.3616 93.6989 75.4673 93.8726 75.5621C93.9143 75.5854 93.956 75.6086 94.0001 75.628C94.0294 75.6409 94.0588 75.6538 94.0858 75.6706C94.153 75.7044 94.0417 75.6513 94.0379 75.6489C94.1346 75.6687 94.2357 75.7344 94.3262 75.7691C94.514 75.8403 94.7066 75.9036 94.9024 75.9528C95.0115 75.983 95.1222 76.0061 95.236 76.0285C95.2638 76.035 95.4318 76.0642 95.3428 76.0492C95.2537 76.0342 95.421 76.0601 95.4512 76.0628C95.6789 76.0941 95.9067 76.1119 96.1345 76.1164C96.3725 76.1217 96.6082 76.1175 96.8463 76.096C96.8719 76.093 96.8944 76.0909 96.92 76.0879C97.01 76.0793 96.9247 76.0801 96.8882 76.0924C96.9371 76.0771 97.0061 76.0769 97.0573 76.071C97.1783 76.0548 97.2979 76.0322 97.4174 76.0096C97.7597 75.9424 98.1552 76.1402 98.2278 76.5143C98.2943 76.8632 98.1047 77.2681 97.7337 77.3389L97.7321 77.346Z" fill="#7A706C"/>
<path d="M102.739 78.1416C103.957 77.8909 104.745 76.6818 104.499 75.4411C104.253 74.2003 103.066 73.3978 101.848 73.6485C100.63 73.8993 99.8421 75.1084 100.088 76.3491C100.334 77.5898 101.521 78.3924 102.739 78.1416Z" fill="#F9AE85"/>
<path d="M96.5783 45.749C95.4165 44.7753 94.2819 43.7675 93.2201 42.681C92.9707 42.4265 92.7276 42.1684 92.4874 41.9069C92.3589 41.7668 92.2336 41.6265 92.1081 41.483C92.0469 41.4112 91.9826 41.3395 91.9214 41.2677C91.8943 41.2365 91.6969 40.9988 91.8398 41.1708C91.3565 40.586 90.9011 39.9835 90.4763 39.3533C90.0582 38.7293 89.6743 38.084 89.3275 37.4139C89.285 37.3313 89.2424 37.2455 89.1999 37.1629C89.1996 37.1564 89.0964 36.9466 89.1574 37.0804C89.2286 37.2267 89.1036 36.9625 89.0892 36.9306C89.0497 36.8447 89.0135 36.7585 88.974 36.6725C88.8151 36.3058 88.6719 35.935 88.5412 35.557C88.4255 35.2239 88.3226 34.8902 88.2289 34.5494C88.1859 34.3919 88.1461 34.2342 88.1093 34.0731C88.0889 33.9829 88.0682 33.8894 88.0478 33.7992C88.0483 33.8089 87.971 33.4119 88.0017 33.5799C88.0328 33.7543 87.9832 33.4634 87.9782 33.4278C87.964 33.334 87.9499 33.2435 87.9388 33.1495C87.918 32.9876 87.8972 32.8257 87.8826 32.6602C87.8443 32.2742 87.8219 31.8874 87.8253 31.5026C87.8262 31.3265 87.84 31.153 87.8378 30.9803C87.8389 30.8075 87.8302 31.0199 87.8281 31.0428C87.8365 30.9543 87.8451 30.8691 87.8569 30.7838C87.9027 30.4163 87.9711 30.0542 88.072 29.7002C88.0967 29.6175 88.1214 29.5347 88.1463 29.4552C88.1958 29.2929 88.1383 29.4882 88.1265 29.5083C88.1955 29.3516 88.2582 29.1952 88.337 29.0412C88.4159 28.8904 88.498 28.7395 88.5936 28.6009C88.5578 28.6549 88.4369 28.7981 88.6092 28.5936C88.6757 28.5152 88.7389 28.4338 88.8087 28.3584C88.9059 28.2524 89.0067 28.156 89.1074 28.0563C88.8936 28.2628 89.2217 27.9754 89.299 27.9193C89.4319 27.8244 89.5652 27.7394 89.7052 27.6572C89.7768 27.6177 89.8452 27.5783 89.9169 27.5388C90.1537 27.4093 89.8066 27.5738 89.967 27.5166C90.2561 27.4105 90.5379 27.2852 90.8342 27.195C90.9919 27.1478 91.1529 27.1037 91.314 27.0628C91.3962 27.0423 91.4754 27.0252 91.5577 27.0079C91.7064 26.9742 91.6782 26.9855 91.545 27.0086C92.2273 26.8953 92.9119 26.8276 93.6055 26.8116C93.9666 26.8028 94.3284 26.8071 94.6877 26.8245C94.7775 26.8297 94.8674 26.8348 94.9572 26.84C94.9732 26.8392 95.1949 26.8571 95.0343 26.8458C94.8576 26.8321 95.1404 26.8567 95.1791 26.8612C95.2916 26.8717 95.4043 26.8855 95.5139 26.9027C96.2257 26.9966 96.9339 27.1461 97.6224 27.3519C97.7945 27.4018 97.9638 27.4616 98.1362 27.5179C98.1785 27.532 98.3937 27.6123 98.1654 27.5262C98.2502 27.5577 98.3319 27.5926 98.4167 27.6241C98.7498 27.7603 99.0772 27.9097 99.3956 28.0727C99.8881 28.3245 100.357 28.6166 100.82 28.9221C101.015 29.0523 101.207 29.1858 101.403 29.3193C101.565 29.4283 101.184 29.1577 101.343 29.2767C101.396 29.3163 101.453 29.3526 101.506 29.3922C101.628 29.4805 101.751 29.5719 101.871 29.6636C102.725 30.3108 103.478 31.0253 104.223 31.7922C104.358 31.9288 104.052 31.5696 104.162 31.7204C104.196 31.7675 104.237 31.8143 104.274 31.8613C104.346 31.9522 104.415 32.0465 104.48 32.1441C104.535 32.2261 104.587 32.3049 104.64 32.3902C104.678 32.4535 104.859 32.8093 104.748 32.5672C104.633 32.3156 104.777 32.6505 104.796 32.7017C104.822 32.7786 104.839 32.8592 104.865 32.9361C104.936 33.1346 104.821 32.7688 104.83 32.7488C104.818 32.7722 104.858 32.855 104.843 32.8786C104.843 32.8753 104.839 32.9961 104.846 33.0055C104.829 32.9771 104.899 32.5823 104.857 32.8322C104.849 32.8685 104.826 32.9186 104.831 32.9542C104.844 33.1034 104.989 32.6527 104.895 32.7748C104.868 32.8088 104.791 32.9366 104.79 32.9726C104.783 32.7578 105.001 32.7172 104.879 32.8278C104.848 32.8555 104.809 32.8999 104.785 32.9337C104.667 33.0799 104.779 32.8069 104.896 32.8433C104.876 32.8377 104.71 32.9669 104.695 32.984C104.572 33.0946 104.932 32.9424 104.776 32.9407C104.744 32.9423 104.675 32.972 104.643 32.9833C104.389 33.0747 104.737 32.9362 104.748 32.9649C104.748 32.9649 104.582 32.9734 104.56 32.9746C104.273 33.0023 104.665 32.9627 104.656 32.9892C104.657 32.9957 104.447 32.9543 104.463 32.9567C104.398 32.9438 104.33 32.9277 104.265 32.9082C104.217 32.8944 103.952 32.7809 104.142 32.8722C104.312 32.9547 104.148 32.8718 104.119 32.8538C104.053 32.8213 103.984 32.7922 103.919 32.7565C103.784 32.6884 103.652 32.6104 103.523 32.5323C103.457 32.49 103.394 32.4476 103.328 32.4054C103.375 32.4356 103.554 32.5763 103.341 32.4112C103.215 32.3134 103.092 32.2154 102.971 32.1107C102.734 31.9045 102.506 31.6848 102.292 31.4512C102.242 31.3951 102.191 31.3358 102.14 31.2798C102.174 31.3139 102.324 31.5115 102.164 31.3046C102.068 31.1791 101.972 31.0537 101.879 30.928C101.45 30.3437 101.043 29.7354 100.682 29.1052C100.591 28.9437 100.499 28.7788 100.411 28.6139C100.369 28.5313 100.326 28.4487 100.284 28.3629C100.312 28.4168 100.384 28.5891 100.266 28.3279C100.118 27.9965 99.9831 27.6578 99.8698 27.3083C99.8167 27.1415 99.7667 26.9713 99.7261 26.7974C99.7059 26.7137 99.6856 26.6267 99.6687 26.5428C99.6813 26.6041 99.7053 26.831 99.6752 26.5457C99.6581 26.3934 99.6441 26.2409 99.6365 26.0881C99.6322 26.0003 99.6406 25.9118 99.6363 25.824C99.6218 25.6618 99.5888 26.0286 99.6394 25.7587C99.6726 25.5874 99.7026 25.4196 99.752 25.2541C99.6722 25.5157 99.8241 25.1591 99.8554 25.0793C99.9351 24.8796 99.7067 25.2434 99.8372 25.0998C99.8857 25.0451 99.9307 24.9842 99.9793 24.9328C100.013 24.8984 100.177 24.7303 100.037 24.8646C99.8871 25.0092 100.136 24.7943 100.151 24.7838C100.235 24.7241 100.606 24.5355 100.29 24.6756C100.409 24.6206 100.528 24.5721 100.651 24.5299C100.792 24.4803 100.937 24.437 101.086 24.4C101.133 24.3878 101.374 24.3396 101.177 24.3758C100.962 24.4162 101.324 24.3585 101.33 24.3549C101.947 24.2744 102.562 24.2917 103.182 24.3349C102.883 24.3143 103.211 24.3399 103.326 24.3535C103.481 24.3716 103.639 24.3929 103.793 24.4143C104.122 24.4626 104.448 24.5241 104.775 24.5954C105.367 24.7247 105.948 24.8905 106.521 25.0893C106.563 25.1034 106.798 25.1859 106.622 25.1232C106.446 25.0605 106.681 25.1463 106.723 25.1604C106.85 25.2093 106.978 25.2615 107.105 25.3136C107.412 25.4413 107.717 25.5821 108.015 25.7265C108.579 26.004 109.132 26.3147 109.664 26.6525C109.796 26.737 109.932 26.8246 110.061 26.9125C110.14 26.9671 110.429 27.1674 110.2 27.0031C110.475 27.2009 110.744 27.4022 111.007 27.6137C111.504 28.012 111.983 28.4373 112.44 28.8832C112.884 29.3168 113.306 29.7711 113.707 30.246C113.507 30.0118 113.796 30.3556 113.851 30.4277C113.95 30.5531 114.049 30.6784 114.145 30.8071C114.34 31.0612 114.525 31.3222 114.708 31.5867C115.07 32.1157 115.404 32.6593 115.714 33.2204C116.083 33.8861 117.097 34.085 117.699 33.6434C118.363 33.1562 118.511 32.3336 118.114 31.6205C115.276 26.5079 110.153 22.383 104.356 21.5493C102.844 21.3335 101.217 21.2312 99.7513 21.7498C98.9998 22.0165 98.2569 22.4589 97.7443 23.0915C97.09 23.901 96.8081 24.8641 96.7731 25.9025C96.7097 27.6596 97.5164 29.4111 98.3828 30.8825C99.1687 32.2146 100.108 33.5486 101.324 34.5033C102.549 35.4673 104.203 36.305 105.762 35.674C107.19 35.0987 107.931 33.6622 107.613 32.1496C107.374 31.0144 106.568 30.0419 105.792 29.2342C104.884 28.2897 103.834 27.4961 102.767 26.7489C101.696 25.9987 100.585 25.3418 99.3623 24.8797C97.6766 24.2457 95.933 23.9277 94.136 23.8896C90.9713 23.8238 87.1957 24.6695 85.7093 27.8655C84.2517 30.9981 85.0432 34.9639 86.4306 37.9733C87.9182 41.1993 90.1959 43.9022 92.7836 46.273C93.3938 46.835 94.0222 47.3765 94.6565 47.9079C95.2341 48.3933 96.1734 48.4299 96.6832 47.8039C97.1598 47.2187 97.1986 46.2583 96.581 45.7391L96.5783 45.749Z" fill="#99D651"/>
<path d="M93.7218 42.0163C93.7218 42.0163 99.8639 36.8797 105.782 43.3761C109.443 47.3967 110.6 55.7087 105.586 62.4858C105.268 62.9128 104.449 63.6883 103.82 63.6489C102.565 63.5731 101.984 59.7954 101.984 59.7954C101.984 59.7954 96.2906 70.115 90.1773 69.8224C84.4937 69.5501 82.5789 56.2111 82.5789 56.2111C82.5789 56.2111 80.7379 58.3854 79.4781 57.8861C77.5394 57.1185 75.3839 48.2905 80.2486 42.235C84.8751 36.4753 90.4321 37.8755 93.7218 42.0163Z" fill="#99D651"/>
<path d="M92.5336 46.9088C91.957 48.9627 91.4713 51.0446 91.1922 53.1615C91.1176 53.7227 91.0591 54.2864 91.0103 54.8529L91.0402 54.4862C90.8751 56.5158 90.8961 58.5553 91.0033 60.5905C91.0385 61.3026 90.4565 62.0203 89.7305 62.0249C89.0044 62.0296 88.3636 61.4953 88.3224 60.7281C88.2225 58.8392 88.1958 56.9434 88.3263 55.0558C88.4553 53.2009 88.7066 51.3625 89.0998 49.5462C89.3339 48.4584 89.6103 47.3848 89.9124 46.3131C90.0074 45.9692 90.1876 45.6666 90.488 45.4654C90.7667 45.2783 91.1844 45.1851 91.512 45.2759C91.8397 45.3667 92.1626 45.5555 92.3442 45.8623C92.5258 46.1692 92.6312 46.555 92.5302 46.9057L92.5336 46.9088Z" fill="#80B45D"/>
<path d="M99.9144 47.1081C99.641 47.0146 99.3599 46.9605 99.0738 46.9328L99.4337 46.9633C98.9388 46.9202 98.4448 46.9619 97.9564 47.0489L98.3114 46.9817C97.6331 47.1111 96.9787 47.337 96.3532 47.6299C96.0593 47.7689 95.5915 47.6918 95.3155 47.5463C95.0395 47.4007 94.7486 47.0831 94.6591 46.7617C94.5653 46.4177 94.5617 46.0234 94.7411 45.7045L94.9381 45.4173C95.0957 45.2397 95.2878 45.1125 95.5112 45.0358C96.3273 44.6516 97.1857 44.4087 98.0752 44.2783C98.4373 44.2239 98.8042 44.2018 99.1668 44.2223C99.6194 44.2512 100.066 44.2935 100.499 44.4375C100.841 44.5536 101.127 44.7052 101.331 45.024C101.515 45.308 101.606 45.7336 101.517 46.0674C101.428 46.4045 101.243 46.7302 100.942 46.9152C100.65 47.0932 100.253 47.2179 99.9175 47.1047L99.9144 47.1081Z" fill="#80B45D"/>
<path d="M99.5003 51.993L99.4754 51.9421L99.6255 52.2604C99.2508 51.4777 98.7733 50.7524 98.2188 50.0865L98.4431 50.3521C97.7597 49.5396 96.9723 48.8237 96.1101 48.2127L96.392 48.4134C96.0107 48.1428 95.6143 47.8926 95.2002 47.6726C94.9011 47.512 94.6496 47.2152 94.5438 46.8881C94.438 46.561 94.4583 46.1297 94.6259 45.831C94.9879 45.193 95.7697 44.8921 96.4336 45.2459C98.1986 46.1887 99.7649 47.5786 100.947 49.213C101.383 49.8166 101.725 50.4607 102.043 51.1355C102.183 51.4315 102.101 51.9182 101.961 52.1927C101.812 52.4839 101.507 52.7702 101.191 52.8613C100.854 52.9569 100.467 52.9605 100.154 52.7777L99.8716 52.577C99.6973 52.4164 99.5724 52.2207 99.4971 51.9931L99.5003 51.993Z" fill="#80B45D"/>
<path d="M90.1054 47.3609C89.9639 47.0878 89.7945 46.8325 89.6005 46.5979L89.8248 46.8635C89.5189 46.5011 89.1643 46.19 88.7796 45.9164L89.0615 46.117C88.4549 45.6918 87.786 45.3675 87.0949 45.1096L87.4208 45.2298C87.0689 45.1012 86.7114 44.9891 86.3516 44.8967C86.0179 44.8128 85.7101 44.6069 85.5194 44.3103C85.3287 44.0136 85.2443 43.6007 85.3333 43.2669C85.5194 42.5662 86.204 42.0454 86.9331 42.2296C88.5145 42.6309 90.1528 43.3423 91.3309 44.5173C91.7282 44.9142 92.0927 45.3617 92.3513 45.8667C92.5214 46.2003 92.621 46.5309 92.5374 46.9101C92.4668 47.2299 92.2445 47.5869 91.9618 47.7579C91.6604 47.9396 91.288 48.0435 90.9376 47.9474C90.6197 47.8594 90.2648 47.6722 90.1054 47.3609Z" fill="#80B45D"/>
<path d="M89.9838 46.9121C89.825 46.9366 89.6662 46.961 89.511 46.9918L89.866 46.9247C88.7694 47.1374 87.6993 47.4988 86.6933 47.9905L87.0057 47.8376C86.2562 48.2085 85.5388 48.6496 84.9005 49.2007L85.1612 48.9721C85.0754 49.0483 84.9897 49.1276 84.9041 49.207C84.6381 49.4586 84.3493 49.6365 83.9759 49.6556C83.6472 49.6725 83.2472 49.5431 83.0082 49.3043C82.7691 49.0656 82.5698 48.7237 82.5678 48.3587C82.5666 48.0132 82.6558 47.6174 82.9125 47.3728C84.361 45.9945 86.2059 45.062 88.116 44.5402C88.6843 44.3839 89.2674 44.2692 89.8519 44.1838C90.1728 44.138 90.585 44.3189 90.8196 44.5351C91.0543 44.7512 91.2591 45.1384 91.2601 45.4807C91.2616 45.8359 91.1648 46.206 90.9153 46.4666C90.6535 46.7376 90.3588 46.8603 89.9871 46.9152L89.9838 46.9121Z" fill="#80B45D"/>
<ellipse cx="41.4663" cy="22.5" rx="10.5074" ry="10.5" fill="#E3DDFF"/>
<ellipse cx="25.4553" cy="36.5" rx="4.50315" ry="4.5" fill="#E3DDFF"/>
</svg>
