<svg width="16" height="16" viewBox="0 0 16 16" fill="none" xmlns="http://www.w3.org/2000/svg">
<path d="M2.00219 7.00879C1.99519 6.92825 2.00502 6.84713 2.03104 6.77059C2.05706 6.69404 2.0987 6.62374 2.15333 6.56415C2.20797 6.50456 2.27439 6.45697 2.34838 6.42441C2.42238 6.39184 2.50234 6.37502 2.58319 6.375H3.69706C3.85177 6.375 4.00014 6.43646 4.10954 6.54585C4.21894 6.65525 4.28039 6.80362 4.28039 6.95833V12.5C4.28039 12.6547 4.21894 12.8031 4.10954 12.9125C4.00014 13.0219 3.85177 13.0833 3.69706 13.0833H3.06531C2.91931 13.0834 2.77861 13.0287 2.67098 12.93C2.56336 12.8313 2.49665 12.6959 2.48402 12.5505L2.00219 7.00879ZM6.0304 6.77604C6.0304 6.53221 6.18206 6.31404 6.40227 6.21021C6.88323 5.98329 7.70252 5.52741 8.07206 4.91112C8.54835 4.11662 8.63819 2.68133 8.65277 2.35262C8.65481 2.30654 8.65365 2.26046 8.65977 2.21496C8.73881 1.64533 9.8381 2.31062 10.2596 3.01412C10.4885 3.39562 10.5177 3.897 10.4938 4.28871C10.4678 4.70754 10.345 5.11208 10.2246 5.514L9.9679 6.37062H13.1345C13.2246 6.37062 13.3135 6.3915 13.3943 6.43162C13.475 6.47174 13.5453 6.53002 13.5997 6.60188C13.6541 6.67374 13.6911 6.75723 13.7078 6.84579C13.7245 6.93436 13.7204 7.02559 13.696 7.11233L12.1297 12.6587C12.0952 12.781 12.0216 12.8887 11.9202 12.9653C11.8188 13.042 11.6951 13.0834 11.568 13.0833H6.61373C6.45902 13.0833 6.31065 13.0219 6.20125 12.9125C6.09185 12.8031 6.0304 12.6547 6.0304 12.5V6.77604Z" stroke="#BDBAC1" stroke-width="1.2" stroke-linecap="round" stroke-linejoin="round"/>
</svg>
